<svg width="240" height="157" viewBox="0 0 240 157" fill="none" xmlns="http://www.w3.org/2000/svg">
<path d="M111.689 92.7854L109.644 97.2518" stroke="black" stroke-width="0.6" stroke-linecap="round"/>
<path d="M109.644 97.2518L110.384 98.9227" stroke="black" stroke-width="0.6" stroke-linecap="round"/>
<path d="M110.384 98.9227H115.593" stroke="black" stroke-width="0.6" stroke-linecap="round"/>
<path d="M115.593 98.9227V103.946" stroke="black" stroke-width="0.6" stroke-linecap="round"/>
<path d="M115.593 103.946H110.013" stroke="black" stroke-width="0.6" stroke-linecap="round"/>
<path d="M110.013 103.946L109.265 105.06" stroke="black" stroke-width="0.6" stroke-linecap="round"/>
<path d="M109.265 105.06L110.013 110.083" stroke="black" stroke-width="0.6" stroke-linecap="round"/>
<path d="M110.013 110.083L105.735 110.831" stroke="black" stroke-width="0.6" stroke-linecap="round"/>
<path d="M105.735 110.831L104.987 106.362" stroke="black" stroke-width="0.6" stroke-linecap="round"/>
<path d="M104.987 106.362L102.754 105.617" stroke="black" stroke-width="0.6" stroke-linecap="round"/>
<path d="M102.754 105.617L98.4811 108.407" stroke="black" stroke-width="0.6" stroke-linecap="round"/>
<path d="M98.4811 108.407L96.2478 104.686" stroke="black" stroke-width="0.6" stroke-linecap="round"/>
<path d="M96.2478 104.686L100.712 102.087" stroke="black" stroke-width="0.6" stroke-linecap="round"/>
<path d="M100.712 102.087V99.485" stroke="black" stroke-width="0.6" stroke-linecap="round"/>
<path d="M100.712 99.485L97.3563 96.6949" stroke="black" stroke-width="0.6" stroke-linecap="round"/>
<path d="M97.3563 96.6949L99.7752 93.3424" stroke="black" stroke-width="0.6" stroke-linecap="round"/>
<path d="M99.7752 93.3424L103.69 96.1325" stroke="black" stroke-width="0.6" stroke-linecap="round"/>
<path d="M103.69 96.1325L105.735 95.3899" stroke="black" stroke-width="0.6" stroke-linecap="round"/>
<path d="M105.735 95.3899L107.22 91.2975" stroke="black" stroke-width="0.6" stroke-linecap="round"/>
<path d="M107.22 91.2975L111.689 92.7854" stroke="black" stroke-width="0.6" stroke-linecap="round"/>
<path d="M110.92 82.6364H121.152" stroke="black" stroke-width="0.6" stroke-linecap="round"/>
<path d="M113.527 82.6364V87.2939" stroke="black" stroke-width="0.6" stroke-linecap="round"/>
<path d="M113.527 87.2939H86.7365" stroke="black" stroke-width="0.6" stroke-linecap="round"/>
<path d="M86.7365 87.2939V114.45" stroke="black" stroke-width="0.6" stroke-linecap="round"/>
<path d="M86.7365 114.45H124.873" stroke="black" stroke-width="0.6" stroke-linecap="round"/>
<path d="M124.873 114.45V87.8508" stroke="black" stroke-width="0.6" stroke-linecap="round"/>
<path d="M124.873 87.8508H118.548" stroke="black" stroke-width="0.6" stroke-linecap="round"/>
<path d="M118.548 87.8508V82.6364" stroke="black" stroke-width="0.6" stroke-linecap="round"/>
<path d="M79.8781 62.503V58.1393H82.4946V58.6081H80.4065V60.0825H82.2985V60.5513H80.4065V62.503H79.8781ZM84.857 58.1393V62.503H84.3286V58.6933H84.303L83.2376 59.4007V58.8638L84.3286 58.1393H84.857ZM89.1972 62.5626C88.9046 62.5626 88.646 62.5108 88.4216 62.4071C88.1986 62.302 88.0246 62.1578 87.8996 61.9746C87.7746 61.7899 87.7128 61.5797 87.7142 61.3439C87.7128 61.1592 87.749 60.9888 87.8229 60.8325C87.8967 60.6748 87.9976 60.5434 88.1254 60.4383C88.2547 60.3318 88.3989 60.2643 88.558 60.2359V60.2103C88.3492 60.1564 88.183 60.0392 88.0594 59.8588C87.9358 59.677 87.8747 59.4703 87.8761 59.2388C87.8747 59.0172 87.9308 58.819 88.0445 58.6443C88.1581 58.4696 88.3144 58.3318 88.5132 58.2309C88.7135 58.1301 88.9415 58.0797 89.1972 58.0797C89.45 58.0797 89.6759 58.1301 89.8747 58.2309C90.0736 58.3318 90.2298 58.4696 90.3435 58.6443C90.4585 58.819 90.5168 59.0172 90.5182 59.2388C90.5168 59.4703 90.4536 59.677 90.3286 59.8588C90.205 60.0392 90.0409 60.1564 89.8364 60.2103V60.2359C89.994 60.2643 90.1361 60.3318 90.2625 60.4383C90.3889 60.5434 90.4898 60.6748 90.5651 60.8325C90.6403 60.9888 90.6787 61.1592 90.6801 61.3439C90.6787 61.5797 90.6148 61.7899 90.4884 61.9746C90.3634 62.1578 90.1894 62.302 89.9663 62.4071C89.7447 62.5108 89.4884 62.5626 89.1972 62.5626ZM89.1972 62.0939C89.3946 62.0939 89.5651 62.0619 89.7085 61.998C89.852 61.9341 89.9628 61.8439 90.0409 61.7274C90.119 61.6109 90.1588 61.4746 90.1602 61.3183C90.1588 61.1535 90.1162 61.0079 90.0324 60.8815C89.9486 60.7551 89.8342 60.6557 89.6894 60.5832C89.5459 60.5108 89.3818 60.4746 89.1972 60.4746C89.0111 60.4746 88.8449 60.5108 88.6986 60.5832C88.5537 60.6557 88.4394 60.7551 88.3555 60.8815C88.2732 61.0079 88.2327 61.1535 88.2341 61.3183C88.2327 61.4746 88.2703 61.6109 88.347 61.7274C88.4251 61.8439 88.5367 61.9341 88.6815 61.998C88.8264 62.0619 88.9983 62.0939 89.1972 62.0939ZM89.1972 60.0228C89.3534 60.0228 89.4919 59.9916 89.6126 59.9291C89.7348 59.8666 89.8307 59.7792 89.9003 59.667C89.9699 59.5548 90.0054 59.4234 90.0068 59.2728C90.0054 59.1251 89.9706 58.9966 89.9024 58.8872C89.8342 58.7764 89.7398 58.6912 89.619 58.6315C89.4983 58.5704 89.3577 58.5399 89.1972 58.5399C89.0338 58.5399 88.8911 58.5704 88.7689 58.6315C88.6467 58.6912 88.5523 58.7764 88.4855 58.8872C88.4188 58.9966 88.3861 59.1251 88.3875 59.2728C88.3861 59.4234 88.4195 59.5548 88.4876 59.667C88.5572 59.7792 88.6531 59.8666 88.7753 59.9291C88.8974 59.9916 89.0381 60.0228 89.1972 60.0228ZM92.92 62.5626C92.599 62.5626 92.3255 62.4753 92.0997 62.3005C91.8738 62.1244 91.7012 61.8694 91.5819 61.5356C91.4626 61.2004 91.403 60.7956 91.403 60.3211C91.403 59.8496 91.4626 59.4469 91.5819 59.113C91.7027 58.7778 91.876 58.5221 92.1018 58.346C92.3291 58.1684 92.6018 58.0797 92.92 58.0797C93.2382 58.0797 93.5102 58.1684 93.736 58.346C93.9633 58.5221 94.1366 58.7778 94.2559 59.113C94.3767 59.4469 94.437 59.8496 94.437 60.3211C94.437 60.7956 94.3774 61.2004 94.2581 61.5356C94.1387 61.8694 93.9662 62.1244 93.7403 62.3005C93.5145 62.4753 93.241 62.5626 92.92 62.5626ZM92.92 62.0939C93.2382 62.0939 93.4853 61.9405 93.6615 61.6336C93.8376 61.3268 93.9257 60.8893 93.9257 60.3211C93.9257 59.9433 93.8852 59.6216 93.8042 59.3559C93.7247 59.0903 93.6096 58.8879 93.4591 58.7487C93.3099 58.6095 93.1302 58.5399 92.92 58.5399C92.6047 58.5399 92.3582 58.6954 92.1807 59.0065C92.0031 59.3162 91.9143 59.7544 91.9143 60.3211C91.9143 60.699 91.9541 61.02 92.0336 61.2842C92.1132 61.5484 92.2275 61.7494 92.3767 61.8872C92.5272 62.025 92.7084 62.0939 92.92 62.0939ZM95.5024 62.503H94.9484L96.5507 58.1393H97.0961L98.6984 62.503H98.1444L96.8405 58.8297H96.8064L95.5024 62.503ZM95.7069 60.7984H97.9399V61.2672H95.7069V60.7984Z" fill="black"/>
<path d="M143.344 57.1186H68.2654V122.38H143.344V57.1186Z" stroke="black" stroke-width="0.6"/>
<path d="M68.8009 76.3242H142.809" stroke="black" stroke-width="0.6"/>
<path d="M40 0V42" stroke="black" stroke-width="0.6"/>
<path d="M168.616 20.9091H169.352L171.082 25.1349H171.142L172.872 20.9091H173.608V26H173.031V22.1321H172.982L171.391 26H170.834L169.243 22.1321H169.193V26H168.616V20.9091ZM178.185 20.9091H178.801V24.2798C178.801 24.6278 178.719 24.9386 178.555 25.212C178.393 25.4838 178.163 25.6984 177.867 25.8558C177.57 26.0116 177.222 26.0895 176.823 26.0895C176.423 26.0895 176.075 26.0116 175.779 25.8558C175.482 25.6984 175.252 25.4838 175.088 25.212C174.925 24.9386 174.844 24.6278 174.844 24.2798V20.9091H175.46V24.2301C175.46 24.4787 175.515 24.6999 175.625 24.8938C175.734 25.0861 175.89 25.2377 176.092 25.3487C176.296 25.4581 176.539 25.5128 176.823 25.5128C177.106 25.5128 177.35 25.4581 177.554 25.3487C177.757 25.2377 177.913 25.0861 178.021 24.8938C178.13 24.6999 178.185 24.4787 178.185 24.2301V20.9091ZM180.032 26V20.9091H180.649V25.4531H183.015V26H180.032ZM183.015 21.456V20.9091H186.833V21.456H185.232V26H184.616V21.456H183.015ZM188.401 20.9091V26H187.784V20.9091H188.401ZM191.606 26V20.9091H194.658V21.456H192.222V23.1761H194.43V23.723H192.222V26H191.606ZM199.055 20.9091H199.672V24.2798C199.672 24.6278 199.589 24.9386 199.425 25.212C199.263 25.4838 199.033 25.6984 198.737 25.8558C198.44 26.0116 198.092 26.0895 197.693 26.0895C197.293 26.0895 196.945 26.0116 196.649 25.8558C196.352 25.6984 196.122 25.4838 195.958 25.212C195.795 24.9386 195.714 24.6278 195.714 24.2798V20.9091H196.331V24.2301C196.331 24.4787 196.385 24.6999 196.495 24.8938C196.604 25.0861 196.76 25.2377 196.962 25.3487C197.166 25.4581 197.409 25.5128 197.693 25.5128C197.976 25.5128 198.22 25.4581 198.424 25.3487C198.627 25.2377 198.783 25.0861 198.891 24.8938C199 24.6999 199.055 24.4787 199.055 24.2301V20.9091ZM203.687 22.1818C203.657 21.9299 203.536 21.7344 203.324 21.5952C203.112 21.456 202.851 21.3864 202.543 21.3864C202.318 21.3864 202.121 21.4228 201.952 21.4957C201.784 21.5687 201.653 21.6689 201.559 21.7965C201.466 21.9241 201.42 22.0691 201.42 22.2315C201.42 22.3674 201.452 22.4843 201.517 22.582C201.583 22.6781 201.667 22.7585 201.77 22.8232C201.873 22.8861 201.981 22.9383 202.093 22.9798C202.206 23.0195 202.31 23.0518 202.404 23.0767L202.921 23.2159C203.054 23.2507 203.201 23.2988 203.364 23.3601C203.528 23.4214 203.684 23.5051 203.833 23.6112C203.984 23.7156 204.108 23.8498 204.206 24.0138C204.304 24.1779 204.353 24.3793 204.353 24.6179C204.353 24.893 204.281 25.1416 204.137 25.3636C203.994 25.5857 203.785 25.7622 203.51 25.8931C203.237 26.024 202.905 26.0895 202.513 26.0895C202.149 26.0895 201.833 26.0307 201.566 25.913C201.301 25.7953 201.092 25.6313 200.94 25.4208C200.789 25.2103 200.704 24.9659 200.684 24.6875H201.32C201.337 24.8797 201.401 25.0388 201.514 25.1648C201.628 25.2891 201.773 25.3819 201.947 25.4432C202.122 25.5028 202.311 25.5327 202.513 25.5327C202.749 25.5327 202.96 25.4946 203.147 25.4183C203.335 25.3404 203.483 25.2327 203.592 25.0952C203.702 24.956 203.756 24.7936 203.756 24.608C203.756 24.4389 203.709 24.3014 203.615 24.1953C203.52 24.0893 203.396 24.0031 203.242 23.9368C203.088 23.8705 202.921 23.8125 202.742 23.7628L202.116 23.5838C201.718 23.4695 201.403 23.3062 201.171 23.0941C200.939 22.882 200.823 22.6044 200.823 22.2614C200.823 21.9763 200.9 21.7277 201.054 21.5156C201.21 21.3018 201.419 21.1361 201.681 21.0185C201.944 20.8991 202.238 20.8395 202.563 20.8395C202.891 20.8395 203.183 20.8983 203.438 21.016C203.693 21.132 203.896 21.2911 204.045 21.4933C204.195 21.6954 204.275 21.925 204.283 22.1818H203.687ZM205.366 26V20.9091H208.439V21.456H205.983V23.1761H208.28V23.723H205.983V25.4531H208.479V26H205.366ZM211.648 23.4545C211.648 22.8281 211.729 22.2522 211.892 21.7269C212.056 21.1999 212.289 20.7152 212.593 20.2727H213.11C212.99 20.4368 212.879 20.639 212.774 20.8793C212.671 21.1179 212.581 21.3806 212.503 21.6673C212.425 21.9523 212.364 22.2473 212.319 22.5522C212.276 22.8571 212.255 23.1579 212.255 23.4545C212.255 23.849 212.293 24.2492 212.369 24.6552C212.445 25.0612 212.548 25.4382 212.677 25.7862C212.806 26.1342 212.951 26.4176 213.11 26.6364H212.593C212.289 26.1939 212.056 25.71 211.892 25.1847C211.729 24.6577 211.648 24.081 211.648 23.4545ZM213.777 21.456V20.9091H217.595V21.456H215.994V26H215.377V21.456H213.777ZM218.109 20.9091H218.815L220.227 23.2855H220.286L221.698 20.9091H222.404L220.565 23.902V26H219.948V23.902L218.109 20.9091ZM223.201 26V20.9091H224.922C225.321 20.9091 225.647 20.9812 225.901 21.1254C226.156 21.2679 226.345 21.4609 226.468 21.7045C226.59 21.9482 226.652 22.2199 226.652 22.5199C226.652 22.8198 226.59 23.0924 226.468 23.3377C226.347 23.583 226.16 23.7785 225.906 23.9244C225.652 24.0685 225.328 24.1406 224.932 24.1406H223.699V23.5938H224.912C225.185 23.5938 225.405 23.5465 225.57 23.4521C225.736 23.3576 225.856 23.23 225.931 23.0692C226.007 22.9068 226.045 22.7237 226.045 22.5199C226.045 22.3161 226.007 22.1338 225.931 21.973C225.856 21.8123 225.735 21.6863 225.568 21.5952C225.401 21.5024 225.178 21.456 224.902 21.456H223.818V26H223.201ZM227.645 26V20.9091H230.717V21.456H228.261V23.1761H230.558V23.723H228.261V25.4531H230.757V26H227.645ZM234.006 26H233.36L235.229 20.9091H235.865L237.735 26H237.088L235.567 21.7145H235.527L234.006 26ZM234.245 24.0114H236.85V24.5582H234.245V24.0114ZM239.701 23.4545C239.701 24.081 239.619 24.6577 239.455 25.1847C239.292 25.71 239.06 26.1939 238.756 26.6364H238.239C238.359 26.4723 238.47 26.2701 238.572 26.0298C238.677 25.7912 238.768 25.5294 238.846 25.2443C238.924 24.9576 238.984 24.6618 239.027 24.3569C239.072 24.0503 239.094 23.7495 239.094 23.4545C239.094 23.0601 239.056 22.6599 238.98 22.2539C238.904 21.8479 238.801 21.4709 238.672 21.1229C238.543 20.7749 238.398 20.4915 238.239 20.2727H238.756C239.06 20.7152 239.292 21.1999 239.455 21.7269C239.619 22.2522 239.701 22.8281 239.701 23.4545Z" fill="black"/>
<path d="M162 25H1V145H162V25Z" stroke="black" stroke-width="1.2" stroke-dasharray="3 3"/>
<path d="M30.917 147.153L40.2104 155.897L49.2482 147.196L30.917 147.153Z" fill="#D3EDFB"/>
<path d="M30.3439 135.362L40.0516 145.07L49.7567 135.362" fill="#D3EDFB"/>
<path d="M30.3439 146.259L40.0516 155.967L49.7567 146.259" fill="#D3EDFB"/>
<path d="M30.917 147.153L40.2104 155.897L49.2482 147.196L30.917 147.153Z" fill="white"/>
<path d="M30.3439 135.362L40.0516 145.07L49.7567 135.362" stroke="black" stroke-width="0.6"/>
<path d="M30.3439 146.259L40.0516 155.967L49.7567 146.259" fill="#D3EDFB"/>
<path d="M30.3439 146.259L40.0516 155.967L49.7567 146.259" stroke="black" stroke-width="0.6"/>
<path d="M42.0697 90.0307C36.0696 90.0307 31.2023 94.8981 31.2023 100.898C31.2023 106.898 36.0696 111.766 40.0517 111.766V145.315" stroke="black" stroke-width="0.6"/>
<path d="M41.1926 90.0307C47.1926 90.0307 52.06 84.8594 52.06 78.8593C52.06 72.8592 46.7809 67.9919 40.7782 67.9919" stroke="black" stroke-width="0.6"/>
<path d="M39.3171 89.6944C33.3171 89.6944 28.4471 94.8981 28.4471 100.898C28.4471 106.898 33.3144 111.766 39.3171 111.766" stroke="black" stroke-width="0.6"/>
<path d="M38.4373 89.7267C44.4401 89.7267 49.3047 84.8594 49.3047 78.8593C49.3047 72.8592 44.0258 67.9919 40.041 67.9919L40.0679 41.7341" stroke="black" stroke-width="0.6"/>
<path d="M40.5 36C46.8505 36 52 30.8504 52 24.5C52 18.1469 46.8505 13 40.5 13C34.1469 13 29 18.1469 29 24.5C29 30.8504 34.1469 36 40.5 36Z" fill="white" stroke="black" stroke-width="0.6"/>
</svg>
